HIERARCHY
ROOT hip
{
  OFFSET 0 0 0
  CHANNELS 6 Xposition Yposition Zposition Zrotation Yrotation Xrotation
  JOINT abdomen
  {
    OFFSET 0 20.6881 -0.73152
    CHANNELS 3 Zrotation Xrotation Yrotation
    JOINT chest
    {
      OFFSET 0 11.7043 -0.48768
      CHANNELS 3 Zrotation Xrotation Yrotation
      JOINT neck
      {
        OFFSET 0 22.1894 -2.19456
        CHANNELS 3 Zrotation Xrotation Yrotation
        JOINT head
        {
          OFFSET -0.24384 7.07133 1.2192
          CHANNELS 3 Zrotation Xrotation Yrotation
          JOINT leftEye
          {
            OFFSET 4.14528 8.04674 8.04672
            CHANNELS 3 Zrotation Xrotation Yrotation
            End Site
            {
              OFFSET 1 0 0
            }
          }
          JOINT rightEye
          {
            OFFSET -3.6576 8.04674 8.04672
            CHANNELS 3 Zrotation Xrotation Yrotation
            End Site
            {
              OFFSET 1 0 0
            }
          }
        }
      }
      JOINT rCollar
      {
        OFFSET -2.68224 19.2634 -4.8768
        CHANNELS 3 Zrotation Xrotation Yrotation
        JOINT rShldr
        {
          OFFSET -8.77824 -1.95073 1.46304
          CHANNELS 3 Zrotation Xrotation Yrotation
          JOINT rForeArm
          {
            OFFSET -28.1742 -1.7115 0.48768
            CHANNELS 3 Zrotation Xrotation Yrotation
            JOINT rHand
            {
              OFFSET -22.5879 0.773209 7.07136
              CHANNELS 3 Zrotation Xrotation Yrotation
              JOINT rThumb1
              {
                OFFSET -1.2192 -0.487915 3.41376
                CHANNELS 3 Zrotation Xrotation Yrotation
                JOINT rThumb2
                {
                  OFFSET -3.37035 -0.52449 3.41376
                  CHANNELS 3 Zrotation Xrotation Yrotation
                  End Site
                  {
                    OFFSET -1.78271 -1.18214 1.43049
                  }
                }
              }
              JOINT rIndex1
              {
                OFFSET -7.75947 0.938293 5.60832
                CHANNELS 3 Zrotation Xrotation Yrotation
                JOINT rIndex2
                {
                  OFFSET -2.54057 -0.884171 1.56538
                  CHANNELS 3 Zrotation Xrotation Yrotation
                  End Site
                  {
                    OFFSET -1.62519 -0.234802 1.16502
                  }
                }
              }
              JOINT rMid1
              {
                OFFSET -8.24714 1.18213 3.41376
                CHANNELS 3 Zrotation Xrotation Yrotation
                JOINT rMid2
                {
                  OFFSET -3.10165 -0.590103 1.0647
                  CHANNELS 3 Zrotation Xrotation Yrotation
                  End Site
                  {
                    OFFSET -2.48547 -0.328903 0.83742
                  }
                }
              }
              JOINT rRing1
              {
                OFFSET -8.82822 0.546677 1.51678
                CHANNELS 3 Zrotation Xrotation Yrotation
                JOINT rRing2
                {
                  OFFSET -2.60934 -0.819778 -0.0198488
                  CHANNELS 3 Zrotation Xrotation Yrotation
                  End Site
                  {
                    OFFSET -2.33842 -0.294052 0.168128
                  }
                }
              }
              JOINT rPinky1
              {
                OFFSET -8.27202 -0.0477905 -0.4584
                CHANNELS 3 Zrotation Xrotation Yrotation
                JOINT rPinky2
                {
                  OFFSET -1.82734 -0.647385 -0.700984
                  CHANNELS 3 Zrotation Xrotation Yrotation
                  End Site
                  {
                    OFFSET -1.69225 -0.51767 -0.607171
                  }
                }
              }
            }
          }
        }
      }
      JOINT lCollar
      {
        OFFSET 2.68224 19.2634 -4.8768
        CHANNELS 3 Zrotation Xrotation Yrotation
        JOINT lShldr
        {
          OFFSET 8.77824 -1.95073 1.46304
          CHANNELS 3 Zrotation Xrotation Yrotation
          JOINT lForeArm
          {
            OFFSET 28.1742 -1.7115 0.48768
            CHANNELS 3 Zrotation Xrotation Yrotation
            JOINT lHand
            {
              OFFSET 22.5879 0.773209 7.07136
              CHANNELS 3 Zrotation Xrotation Yrotation
              JOINT lThumb1
              {
                OFFSET 1.2192 -0.487915 3.41376
                CHANNELS 3 Zrotation Xrotation Yrotation
                JOINT lThumb2
                {
                  OFFSET 3.37035 -0.52449 3.41376
                  CHANNELS 3 Zrotation Xrotation Yrotation
                  End Site
                  {
                    OFFSET 1.78271 -1.18214 1.43049
                  }
                }
              }
              JOINT lIndex1
              {
                OFFSET 7.75947 0.938293 5.60832
                CHANNELS 3 Zrotation Xrotation Yrotation
                JOINT lIndex2
                {
                  OFFSET 2.54057 -0.884171 1.56538
                  CHANNELS 3 Zrotation Xrotation Yrotation
                  End Site
                  {
                    OFFSET 1.62519 -0.234802 1.16502
                  }
                }
              }
              JOINT lMid1
              {
                OFFSET 8.24714 1.18213 3.41376
                CHANNELS 3 Zrotation Xrotation Yrotation
                JOINT lMid2
                {
                  OFFSET 3.10165 -0.590103 1.0647
                  CHANNELS 3 Zrotation Xrotation Yrotation
                  End Site
                  {
                    OFFSET 2.48547 -0.328903 0.83742
                  }
                }
              }
              JOINT lRing1
              {
                OFFSET 8.82822 0.546677 1.51678
                CHANNELS 3 Zrotation Xrotation Yrotation
                JOINT lRing2
                {
                  OFFSET 2.60934 -0.819778 -0.0198488
                  CHANNELS 3 Zrotation Xrotation Yrotation
                  End Site
                  {
                    OFFSET 2.33842 -0.294052 0.168128
                  }
                }
              }
              JOINT lPinky1
              {
                OFFSET 8.27202 -0.0477905 -0.4584
                CHANNELS 3 Zrotation Xrotation Yrotation
                JOINT lPinky2
                {
                  OFFSET 1.82734 -0.647385 -0.700984
                  CHANNELS 3 Zrotation Xrotation Yrotation
                  End Site
                  {
                    OFFSET 1.69225 -0.51767 -0.607171
                  }
                }
              }
            }
          }
        }
      }
    }
  }
  JOINT rButtock
  {
    OFFSET -8.77824 4.35084 1.2192
    CHANNELS 3 Zrotation Xrotation Yrotation
    JOINT rThigh
    {
      OFFSET 0 -1.70687 -2.19456
      CHANNELS 3 Zrotation Xrotation Yrotation
      JOINT rShin
      {
        OFFSET 0 -36.8199 0.73152
        CHANNELS 3 Zrotation Xrotation Yrotation
        JOINT rFoot
        {
          OFFSET 0.73152 -45.1104 -5.12064
          CHANNELS 3 Zrotation Xrotation Yrotation
          End Site
          {
            OFFSET -1.1221 -3.69964 12.103
          }
        }
      }
    }
  }
  JOINT lButtock
  {
    OFFSET 8.77824 4.35084 1.2192
    CHANNELS 3 Zrotation Xrotation Yrotation
    JOINT lThigh
    {
      OFFSET 0 -1.70687 -2.19456
      CHANNELS 3 Zrotation Xrotation Yrotation
      JOINT lShin
      {
        OFFSET 0 -36.8199 0.73152
        CHANNELS 3 Zrotation Xrotation Yrotation
        JOINT lFoot
        {
          OFFSET -0.73152 -45.1104 -5.12064
          CHANNELS 3 Zrotation Xrotation Yrotation
          End Site
          {
            OFFSET 1.1221 -3.69964 12.103
          }
        }
      }
    }
  }
}
MOTION
Frames:	9
Frame Time:	0.00833333
-43.8401 84.1002 4.28599 0.0 0.0 0.0 -1.51928 -0.00282929 -0.0413939 -0.418704 0.00102648 -0.0725121 -9.23333e-15 0.0 1.98785e-16 -2.83144e-14 3.18055e-15 4.69008e-16 -0.0 0.0 0.0 -0.0 0.0 0.0 -4.52421e-15 -6.67792e-17 1.98785e-16 -9.70369e-14 -1.59649e-15 1.98785e-15 -1.70771e-12 4.59193e-13 6.04305e-14 -1.94561e-11 -7.5819e-13 2.83069e-13 -4.59126e-11 -6.46569e-13 7.69694e-13 -7.92916e-11 -1.11319e-12 1.33504e-12 -4.59073e-11 -6.43267e-13 7.66514e-13 7.73091 5.47488 0.417314 -4.59117e-11 -6.46647e-13 7.79236e-13 2.90554 0.965183 0.102902 -4.59007e-11 -6.4615e-13 7.71285e-13 10.2786 0.731801 0.0259123 -4.59123e-11 -6.48038e-13 7.82416e-13 2.22167 -0.733487 -0.20892 -4.62019e-15 -6.67792e-17 -9.93923e-17 -1.00617e-13 -1.78906e-15 5.96354e-16 -1.69444e-12 -5.57392e-13 1.59028e-14 -1.94774e-11 2.55413e-13 3.49861e-13 -4.59275e-11 -6.49549e-13 7.69694e-13 -7.93079e-11 -1.12274e-12 1.33663e-12 -4.59364e-11 -6.46448e-13 7.79236e-13 -7.73091 5.47488 -0.417314 -4.59277e-11 -6.49032e-13 7.72875e-13 -2.90554 0.965183 -0.102902 -4.59373e-11 -6.48933e-13 7.70489e-13 -10.2786 0.731801 -0.0259123 -4.59244e-11 -6.49628e-13 7.63333e-13 -2.22167 -0.733487 0.20892 -2.03217e-16 0.0 -3.88251e-19 -0.640405 -1.92323 -0.00643854 -0.00925564 -2.07856 -0.0764367 -0.512294 3.99733 0.140333 2.03217e-16 0.0 3.88251e-19 -1.6696 -6.49784 0.154689 -0.0023115 6.20803 -0.0679916 0.533904 0.285474 -0.0665514
-43.6237 81.7881 -1.57903 -129.626 86.7301 -113.606 -0.591818 2.41775 1.0206 1.09211 0.157117 0.285903 0.334276 0.275981 -0.589353 -1.78954 5.48294 -0.234549 -0.0 0.0 0.0 -0.0 0.0 0.0 -1.69768e-14 2.74481e-13 -3.81651e-14 24.6084 8.26299 8.23643 -2.91173 -1.1389 4.7282 0.21487 -10.3139 -1.36616 -4.67664e-10 -6.44404e-10 -1.21824e-09 -7.79198e-10 -1.09724e-09 -2.10923e-09 -4.6766e-10 -6.44402e-10 -1.21824e-09 7.73091 5.47488 0.417314 -4.67663e-10 -6.44404e-10 -1.21823e-09 2.90554 0.965183 0.102902 -4.67654e-10 -6.44403e-10 -1.21824e-09 10.2786 0.731801 0.0259123 -4.67666e-10 -6.44404e-10 -1.21823e-09 2.22167 -0.733487 -0.20892 -1.71003e-14 2.74478e-13 -3.83918e-14 -25.0143 20.8288 -9.06604 3.8184 -1.66215 -6.04061 -0.284843 -11.8875 1.54376 -8.67209e-10 -5.47546e-10 9.88019e-10 -1.52192e-09 -9.08012e-10 1.67262e-09 -8.67217e-10 -5.4754e-10 9.8803e-10 -7.73091 5.47488 -0.417314 -8.67209e-10 -5.47546e-10 9.88019e-10 -2.90554 0.965183 -0.102902 -8.67218e-10 -5.47547e-10 9.88022e-10 -10.2786 0.731801 -0.0259123 -8.67206e-10 -5.47547e-10 9.88018e-10 -2.22167 -0.733487 0.20892 -2.03217e-16 0.0 -3.88251e-19 -3.60875 -11.1661 -0.770193 -0.00686179 7.08915 0.0507941 -0.655314 1.63148 -2.58097 2.03217e-16 0.0 3.88251e-19 2.33547 -15.4495 1.51226 -0.0147613 14.3095 -0.212999 0.257444 -2.94038 -1.20363
-43.6269 81.7881 -1.58079 -130.021 86.7129 -113.99 0.290066 4.97305 2.1491 2.68788 0.320609 0.664711 0.694233 0.56961 -1.21207 -3.63136 11.2742 -0.489865 -0.0 0.0 0.0 -0.0 0.0 0.0 -3.21388e-14 5.66212e-13 -8.11414e-14 47.9809 16.4229 17.4997 -5.78599 -2.3169 9.7322 -0.127922 -21.1976 -2.96585 -9.15759e-10 -1.35808e-09 -2.57714e-09 -1.52131e-09 -2.31227e-09 -4.46142e-09 -9.15756e-10 -1.35808e-09 -2.57716e-09 7.73091 5.47488 0.417314 -9.15759e-10 -1.35808e-09 -2.57714e-09 2.90554 0.965183 0.102902 -9.15752e-10 -1.35808e-09 -2.57714e-09 10.2786 0.731801 0.0259123 -9.15764e-10 -1.35808e-09 -2.57713e-09 2.22167 -0.733487 -0.20892 -3.22944e-14 5.66205e-13 -8.12905e-14 -42.366 40.9107 -23.3323 7.47723 -3.35838 -12.4443 0.172462 -24.4202 3.41282 -1.75988e-09 -1.14744e-09 2.0734e-09 -3.09023e-09 -1.90266e-09 3.51036e-09 -1.75989e-09 -1.14743e-09 2.07341e-09 -7.73091 5.47488 -0.417314 -1.75988e-09 -1.14744e-09 2.0734e-09 -2.90554 0.965183 -0.102902 -1.75989e-09 -1.14744e-09 2.0734e-09 -10.2786 0.731801 -0.0259123 -1.75988e-09 -1.14744e-09 2.0734e-09 -2.22167 -0.733487 0.20892 -2.03217e-16 0.0 -3.88251e-19 -7.03156 -20.9321 -1.65799 -0.0499801 16.7791 0.192627 -1.05013 -0.860562 -5.45451 2.03217e-16 0.0 3.88251e-19 7.07799 -24.8898 3.12224 0.0205287 22.8744 -0.383274 -0.174771 -6.38252 -2.40799
-43.6302 81.7873 -1.58558 -130.498 86.7023 -114.458 0.992223 7.24909 3.16719 4.10787 0.469232 1.00276 1.01986 0.827592 -1.76822 -5.22907 16.4477 -0.730316 -0.0 0.0 0.0 -0.0 0.0 0.0 -4.1882e-14 8.23576e-13 -1.14893e-13 66.4549 22.6652 26.6511 -8.17687 -3.32376 14.2062 -1.0361 -30.8654 -4.69893 -1.31117e-09 -1.93192e-09 -3.65625e-09 -2.17901e-09 -3.28949e-09 -6.33035e-09 -1.31116e-09 -1.93192e-09 -3.65627e-09 7.73091 5.47488 0.417314 -1.31117e-09 -1.93192e-09 -3.65625e-09 2.90554 0.965183 0.102902 -1.31116e-09 -1.93192e-09 -3.65625e-09 10.2786 0.731801 0.0259123 -1.31117e-09 -1.93192e-09 -3.65624e-09 2.22167 -0.733487 -0.20892 -4.20606e-14 8.23566e-13 -1.14977e-13 -44.4318 53.7372 -46.4995 10.4202 -4.76518 -18.1792 1.43791 -35.5465 5.57291 -2.50977e-09 -1.64134e-09 2.96252e-09 -4.40715e-09 -2.72179e-09 5.0152e-09 -2.50978e-09 -1.64133e-09 2.96253e-09 -7.73091 5.47488 -0.417314 -2.50977e-09 -1.64134e-09 2.96251e-09 -2.90554 0.965183 -0.102902 -2.50978e-09 -1.64134e-09 2.96252e-09 -10.2786 0.731801 -0.0259123 -2.50977e-09 -1.64134e-09 2.96253e-09 -2.22167 -0.733487 0.20892 -2.03217e-16 0.0 -3.88251e-19 -10.3811 -29.6296 -2.59325 -0.133317 25.4242 0.336588 -1.61376 -3.06498 -8.0313 2.03217e-16 0.0 3.88251e-19 11.845 -33.2734 4.86433 0.102337 30.5114 -0.561778 -0.683772 -9.37661 -3.52012
-43.6233 81.787 -1.58768 -130.455 86.7077 -114.448 1.43651 8.83632 3.88776 5.09242 0.580743 1.2389 1.24746 0.996793 -2.15783 -6.31661 20.0781 -0.908359 -0.0 0.0 0.0 -0.0 0.0 0.0 -3.80784e-14 9.95021e-13 -1.25582e-13 78.0132 26.144 33.6391 -9.75064 -3.99116 17.3346 -2.11221 -37.5649 -6.20544 -1.57485e-09 -2.15617e-09 -4.03586e-09 -2.62565e-09 -3.67218e-09 -6.99114e-09 -1.57485e-09 -2.15617e-09 -4.03588e-09 7.73091 5.47488 0.417314 -1.57485e-09 -2.15617e-09 -4.03587e-09 2.90554 0.965183 0.102902 -1.57485e-09 -2.15617e-09 -4.03586e-09 10.2786 0.731801 0.0259123 -1.57486e-09 -2.15617e-09 -4.03585e-09 2.22167 -0.733487 -0.20892 -3.82574e-14 9.95012e-13 -1.25632e-13 -37.391 56.6521 -69.5614 12.2978 -5.65963 -22.1876 3.01785 -43.2628 7.60061 -2.90271e-09 -1.87027e-09 3.36098e-09 -5.09562e-09 -3.10211e-09 5.68782e-09 -2.90272e-09 -1.87026e-09 3.36099e-09 -7.73091 5.47488 -0.417314 -2.90271e-09 -1.87027e-09 3.36097e-09 -2.90554 0.965183 -0.102902 -2.90272e-09 -1.87027e-09 3.36098e-09 -10.2786 0.731801 -0.0259123 -2.90271e-09 -1.87027e-09 3.36099e-09 -2.22167 -0.733487 0.20892 -2.03217e-16 0.0 -3.88251e-19 -12.9268 -35.6765 -3.37445 -0.221925 31.4573 0.454163 -2.1271 -4.59074 -9.84715 2.03217e-16 0.0 3.88251e-19 15.5585 -39.0857 6.3778 0.194473 35.8295 -0.709362 -1.10667 -11.2651 -4.3595
-43.6151 81.7878 -1.59222 -130.646 86.7224 -114.676 1.60412 9.46711 4.17229 5.47169 0.642059 1.331 1.32925 1.03943 -2.31249 -6.73855 21.5563 -0.975909 -0.0 0.0 0.0 -0.0 0.0 0.0 -1.4215e-14 1.03326e-12 -1.01171e-13 82.2692 27.2286 36.5197 -10.3417 -4.24025 18.5527 -2.65372 -40.1344 -6.88205 -1.66567e-09 -1.86879e-09 -3.39114e-09 -2.79764e-09 -3.18468e-09 -5.88332e-09 -1.66567e-09 -1.86879e-09 -3.39116e-09 7.73091 5.47488 0.417314 -1.66567e-09 -1.86879e-09 -3.39115e-09 2.90554 0.965183 0.102902 -1.66566e-09 -1.86879e-09 -3.39114e-09 10.2786 0.731801 0.0259123 -1.66568e-09 -1.86879e-09 -3.39114e-09 2.22167 -0.733487 -0.20892 -1.43519e-14 1.03326e-12 -1.0123e-13 -34.1441 55.9954 -78.7005 12.9879 -5.98129 -23.7436 3.86589 -46.3134 8.59073 -2.78371e-09 -1.71741e-09 3.05251e-09 -4.88283e-09 -2.8504e-09 5.1614e-09 -2.78372e-09 -1.7174e-09 3.05253e-09 -7.73091 5.47488 -0.417314 -2.78371e-09 -1.71741e-09 3.05251e-09 -2.90554 0.965183 -0.102902 -2.78372e-09 -1.71741e-09 3.05252e-09 -10.2786 0.731801 -0.0259123 -2.78371e-09 -1.71741e-09 3.05252e-09 -2.22167 -0.733487 0.20892 -2.03217e-16 0.0 -3.88251e-19 -13.9842 -38.0277 -3.70499 -0.265019 33.8344 0.505933 -2.36099 -5.19844 -10.5788 2.03217e-16 0.0 3.88251e-19 17.1192 -41.3556 7.11656 0.239976 37.9047 -0.773985 -1.28102 -11.5598 -4.80397
-43.6124 81.7882 -1.60403 -131.269 86.7588 -115.311 1.5947 9.41663 4.14108 5.41898 0.667454 1.32027 1.30591 0.991851 -2.2994 -6.69735 21.4972 -0.958878 -0.0 0.0 0.0 -0.0 0.0 0.0 2.39248e-14 9.76966e-13 -5.18207e-14 81.8198 27.0479 36.2291 -10.2692 -4.20838 18.4034 -2.57811 -39.7775 -6.78619 -1.63246e-09 -1.21702e-09 -2.0169e-09 -2.77246e-09 -2.07743e-09 -3.51589e-09 -1.63245e-09 -1.21702e-09 -2.01692e-09 7.73091 5.47488 0.417314 -1.63246e-09 -1.21702e-09 -2.01691e-09 2.90554 0.965183 0.102902 -1.63245e-09 -1.21702e-09 -2.0169e-09 10.2786 0.731801 0.0259123 -1.63246e-09 -1.21702e-09 -2.0169e-09 2.22167 -0.733487 -0.20892 2.38597e-14 9.76971e-13 -5.19201e-14 -34.428 56.0015 -77.7496 12.8967 -5.93511 -23.5396 3.78534 -46.0696 8.50291 -2.29963e-09 -1.29235e-09 2.24006e-09 -4.0273e-09 -2.14809e-09 3.78013e-09 -2.29963e-09 -1.29234e-09 2.24007e-09 -7.73091 5.47488 -0.417314 -2.29963e-09 -1.29235e-09 2.24005e-09 -2.90554 0.965183 -0.102902 -2.29964e-09 -1.29235e-09 2.24006e-09 -10.2786 0.731801 -0.0259123 -2.29963e-09 -1.29235e-09 2.24006e-09 -2.22167 -0.733487 0.20892 -2.03217e-16 0.0 -3.88251e-19 -13.8719 -37.745 -3.63525 -0.260396 33.6001 0.500598 -2.34597 -5.16081 -10.5289 2.03217e-16 0.0 3.88251e-19 16.9325 -41.1158 7.14129 0.23446 37.6634 -0.766269 -1.24548 -10.7223 -4.95794
-43.6054 81.7883 -1.6048 -131.428 86.7557 -115.497 1.5176 9.09165 3.99043 5.1895 0.675739 1.27056 1.24573 0.912185 -2.22185 -6.47074 20.8111 -0.914815 -0.0 0.0 0.0 -0.0 0.0 0.0 6.60243e-14 9.03532e-13 3.00196e-15 79.4605 26.3925 34.6795 -9.94231 -4.07081 17.7284 -2.26759 -38.3075 -6.39768 -1.53117e-09 -4.55022e-10 -4.22918e-10 -2.63509e-09 -7.8281e-10 -7.68119e-10 -1.53116e-09 -4.55024e-10 -4.22927e-10 7.73091 5.47488 0.417314 -1.53117e-09 -4.55021e-10 -4.22922e-10 2.90554 0.965183 0.102902 -1.53116e-09 -4.55021e-10 -4.22917e-10 10.2786 0.731801 0.0259123 -1.53118e-09 -4.55021e-10 -4.22911e-10 2.22167 -0.733487 -0.20892 6.60258e-14 9.03545e-13 2.84976e-15 -36.0647 56.2885 -72.8275 12.4938 -5.74239 -22.6348 3.32703 -44.4969 7.97722 -1.68903e-09 -7.75749e-10 1.258e-09 -2.94895e-09 -1.29383e-09 2.11122e-09 -1.68904e-09 -7.75747e-10 1.25802e-09 -7.73091 5.47488 -0.417314 -1.68903e-09 -7.7575e-10 1.258e-09 -2.90554 0.965183 -0.102902 -1.68904e-09 -7.75751e-10 1.258e-09 -10.2786 0.731801 -0.0259123 -1.68903e-09 -7.75752e-10 1.258e-09 -2.22167 -0.733487 0.20892 -2.03217e-16 0.0 -3.88251e-19 -13.2918 -36.4118 -3.41384 -0.23666 32.3209 0.472378 -2.23026 -4.86727 -10.1622 2.03217e-16 0.0 3.88251e-19 16.0453 -39.873 6.87207 0.208524 36.4911 -0.729548 -1.12492 -9.52217 -4.97054
-43.6013 81.791 -1.59444 -131.377 86.7004 -115.464 1.48111 8.89886 3.9169 5.03836 0.685721 1.24571 1.21683 0.858576 -2.18315 -6.33628 20.4085 -0.90151 -0.0 0.0 0.0 -0.0 0.0 0.0 1.01767e-13 8.90348e-13 4.3832e-14 77.9728 26.0332 33.7859 -9.76916 -4.00232 17.3694 -2.10849 -37.5378 -6.19935 -1.41777e-09 1.63019e-10 8.81042e-10 -2.47051e-09 2.66769e-10 1.48073e-09 -1.41776e-09 1.63017e-10 8.81036e-10 7.73091 5.47488 0.417314 -1.41777e-09 1.6302e-10 8.81039e-10 2.90554 0.965183 0.102902 -1.41776e-09 1.63019e-10 8.81044e-10 10.2786 0.731801 0.0259123 -1.41777e-09 1.6302e-10 8.81049e-10 2.22167 -0.733487 -0.20892 1.01795e-13 8.90366e-13 4.36332e-14 -36.9684 56.3224 -69.9168 12.2469 -5.62325 -22.0886 3.07235 -43.558 7.67991 -1.1905e-09 -3.48248e-10 4.40758e-10 -2.0677e-09 -5.86294e-10 7.21848e-10 -1.1905e-09 -3.4825e-10 4.40777e-10 -7.73091 5.47488 -0.417314 -1.1905e-09 -3.4825e-10 4.40758e-10 -2.90554 0.965183 -0.102902 -1.19051e-09 -3.48251e-10 4.40756e-10 -10.2786 0.731801 -0.0259123 -1.1905e-09 -3.48252e-10 4.40749e-10 -2.22167 -0.733487 0.20892 -2.03217e-16 0.0 -3.88251e-19 -12.9464 -35.6117 -3.29017 -0.223275 31.5632 0.456083 -2.16589 -4.70636 -9.9441 2.03217e-16 0.0 3.88251e-19 15.5282 -39.1309 6.7459 0.193553 35.7728 -0.707744 -1.04762 -8.72867 -4.98835
